<svg id="Layer_1" data-name="Layer 1" xmlns="http://www.w3.org/2000/svg" viewBox="0 0 398.51 93.42"><defs><style>.cls-1{fill:#fff;}</style></defs><title>BEKK_Logo_RGB_white</title><path class="cls-1" d="M395.93,588.87h34.85s28.74-2.43,28.74,21.76S434.75,633,430,633l-34.28,0v-10.7h35.57s15.62,0.72,15.62-11.62c0-11.92-10.56-11.08-16-11.08h-35V588.87Z" transform="translate(-395.74 -588.8)"/><path class="cls-1" d="M454.83,641c5.3,3.17,10.06,8.89,10.06,18.24,0,24.19-24.79,22.82-29.52,22.82l-39.64,0V671.35h40.67s15.79,0.21,15.9-12.13c0.07-8.48-5.32-14.93-10.47-18.24h13Z" transform="translate(-395.74 -588.8)"/><path class="cls-1" d="M495.92,641h14.9v21.16c0,6.94,4.17,9.22,8.29,9.22h40.73l0.06,10.87H510.76c-5.11,0-14.84-3.31-14.84-17.11V641Z" transform="translate(-395.74 -588.8)"/><path class="cls-1" d="M559.95,622.32l-42.14,0c-4.13,0-7-.4-7-5.13,0-.74,0-11.51.07-12.33,0-5,2.56-5.28,6.69-5.28h42.33V588.87h-48s-15.9-1.06-15.9,15.95v11.87c0,15.27,11.4,16.27,16.51,16.27h47.42Z" transform="translate(-395.74 -588.8)"/><path class="cls-1" d="M666.53,588.89c-2.24,2.47-23.06,27.36-25.7,30-4.4,4.34-12.28,3.41-18.66,3.41s-7.59-4.91-7.59-8.25,0-22.12,0-25.13H599.72c0,3.18.05,29.25,0.05,33.38,0,3.28,1.54,10.72,14.74,10.72L640,633c3.27,0,8.2-2,13.85-8.68,1.67-2,25.85-31.06,29.77-35.38h-17Z" transform="translate(-395.74 -588.8)"/><path class="cls-1" d="M651.94,647.67C648.83,644.31,646,641,636.2,641H614.52c-10.85,0-14.71,7.87-14.71,12v29.1l14.77,0c0-3,0-21.72,0-25.06s1-5.22,7.46-5.22,5.39,0,6.11,0c6.11,0,9.53.22,12.68,3.36,2.63,2.62,24.26,24.28,26.75,26.89h17C680.44,677.58,653.7,649.57,651.94,647.67Z" transform="translate(-395.74 -588.8)"/><path class="cls-1" d="M776.17,588.93c-2.24,2.47-23.06,27.36-25.7,30-4.4,4.34-12.28,3.41-18.66,3.41s-7.59-4.91-7.59-8.25,0-22.12,0-25.13H709.36c0,3.18.05,29.25,0.05,33.38,0,3.28,1.54,10.72,14.74,10.72l25.44,0c3.27,0,8.2-2,13.85-8.68,1.67-2,25.85-31.06,29.77-35.38h-17Z" transform="translate(-395.74 -588.8)"/><path class="cls-1" d="M761.58,647.7c-3.11-3.36-5.95-6.69-15.74-6.69H724.16c-10.85,0-14.71,7.87-14.71,12v29.1l14.77,0c0-3,0-21.72,0-25.06s1-5.22,7.46-5.22,5.39,0,6.11,0c6.11,0,9.53.22,12.68,3.36,2.63,2.62,24.26,24.28,26.75,26.89h17C790.08,677.61,763.34,649.6,761.58,647.7Z" transform="translate(-395.74 -588.8)"/></svg>